PathFileType	4	(X/Y/Z)	/Users/itak/Documents/Research/Walk-IL/dataset/trc/00298_00010.trc
DataRate	CameraRate	NumFrames	NumMarkers	Units	OrigDataRate	OrigDataStartFrame	OrigNumFrames
100.000000	100.000000	4	55	mm	100.000000	37	297
Frame#	Time	RPSI			LPSI			L3			STRN			T10			C7			CLAV			RBAK			LBAK			LSHO			LUPA			LAEL			LAOL			LWPS			LFRA			LIFD			LHPS			LHTS			RSHO			RUPA			RAEL			RAOL			RWTS			RWPS			RFRA			RIFD			RHTS			RHPS			RBHD			LFHD			RFHD			LBHD			RASI			LASI			LKNE			LTHI			LANK			LTIP			LTOE			LMT1			LMT5			LHEE			RKNE			RTHI			RANK			RTIP			RTOE			RMT1			RMT5			LWTS			RHEE			LHIP			RHIP			*53			*54			
		X1	Y1	Z1	X2	Y2	Z2	X3	Y3	Z3	X4	Y4	Z4	X5	Y5	Z5	X6	Y6	Z6	X7	Y7	Z7	X8	Y8	Z8	X9	Y9	Z9	X10	Y10	Z10	X11	Y11	Z11	X12	Y12	Z12	X13	Y13	Z13	X14	Y14	Z14	X15	Y15	Z15	X16	Y16	Z16	X17	Y17	Z17	X18	Y18	Z18	X19	Y19	Z19	X20	Y20	Z20	X21	Y21	Z21	X22	Y22	Z22	X23	Y23	Z23	X24	Y24	Z24	X25	Y25	Z25	X26	Y26	Z26	X27	Y27	Z27	X28	Y28	Z28	X29	Y29	Z29	X30	Y30	Z30	X31	Y31	Z31	X32	Y32	Z32	X33	Y33	Z33	X34	Y34	Z34	X35	Y35	Z35	X36	Y36	Z36	X37	Y37	Z37	X38	Y38	Z38	X39	Y39	Z39	X40	Y40	Z40	X41	Y41	Z41	X42	Y42	Z42	X43	Y43	Z43	X44	Y44	Z44	X45	Y45	Z45	X46	Y46	Z46	X47	Y47	Z47	X48	Y48	Z48	X49	Y49	Z49	X50	Y50	Z50	X51	Y51	Z51	X52	Y52	Z52	X53	Y53	Z53	X54	Y54	Z54	X55	Y55	Z55	

38	0.37	-910.1642456054688	991.6887817382812	681.7446899414062	-892.5887451171875	983.4181518554688	507.6943664550781	-879.8165893554688	1054.01220703125	601.5252685546875	-627.2758178710938	1219.047607421875	593.1053466796875	-890.6492309570312	1164.13623046875	604.9811401367188	-844.8504028320312	1405.711547851562	573.9137573242188	-686.6737060546875	1321.933715820312	580.890869140625	-893.7842407226562	1277.091186523438	661.4523315429688	-864.7957153320312	1360.464599609375	474.2668762207031	-777.24609375	1361.823974609375	417.5964660644531	-822.9957885742188	1246.634521484375	353.8173828125	-847.9459838867188	1045.318725585938	346.7402954101562	-895.0303955078125	1039.949096679688	419.2378234863281	-844.5099487304688	807.7097778320312	329.9725952148438	-852.6478271484375	940.71923828125	337.3998107910156	-830.1369018554688	631.5463256835938	389.2200927734375	-856.6243896484375	719.8938598632812	335.3416748046875	-797.4893798828125	711.6700439453125	364.7998962402344	-769.7406005859375	1397.90234375	729.9851684570312	-774.2273559570312	1346.333740234375	802.8665161132812	-796.497314453125	1085.261108398438	872.8223266601562	-838.4863891601562	1075.361694335938	786.5554809570312	-725.369140625	849.188232421875	824.4871215820312	-760.9068603515625	852.4295043945312	901.9494018554688	-776.7136840820312	1016.662170410156	885.4322509765625	-738.4649047851562	662.4404907226562	835.764404296875	-707.0885009765625	731.4774780273438	845.7295532226562	-750.7993774414062	738.7227783203125	901.0491333007812	-802.6214599609375	1579.514038085938	634.9453125	-659.6277465820312	1589.142700195312	477.4379577636719	-640.6642456054688	1597.882202148438	567.7085571289062	-833.1404418945312	1555.471313476562	492.0559692382812	-699.7059326171875	927.74462890625	740.8566284179688	-686.5012817382812	932.069580078125	489.8008728027344	-640.0709838867188	484.9584655761719	504.3750915527344	-685.2051391601562	617.2998657226562	459.7977600097656	-714.5932006835938	48.46713638305664	569.8742065429688	-671.1275634765625	252.5267333984375	527.307373046875	-504.7366333007812	40.06628799438477	626.796875	-574.8089599609375	32.3853874206543	667.789794921875	-591.9891967773438	45.4619255065918	557.295166015625	-757.6309204101562	39.73051834106445	631.2235717773438	-868.70556640625	459.9913940429688	782.6499633789062	-800.1836547851562	712.5288696289062	798.4956665039062	-1226.245727539062	180.2743988037109	742.7186279296875	-942.0657348632812	359.0440063476562	771.4498901367188	-1125.015380859375	41.15483856201172	668.8851928710938	-1150.953857421875	85.52524566650391	636.7484741210938	-1188.493896484375	80.01683044433594	749.1445922851562	-797.1992797851562	812.9024047851562	384.891845703125	-1250.43310546875	229.7482452392578	697.723876953125	-814.66796875	935.351318359375	420.5787048339844	-830.373291015625	931.170166015625	797.1687622070312	nan	nan	nan	nan	nan	nan	
39	0.38	-901.5912475585938	991.2996215820312	681.0408325195312	-884.2271728515625	984.035888671875	507.0810852050781	-871.1283569335938	1054.577758789062	600.072998046875	-618.643310546875	1219.951904296875	591.8906860351562	-881.9073486328125	1164.878173828125	603.3683471679688	-836.4591674804688	1406.512939453125	572.2921752929688	-678.154296875	1322.756958007812	579.53857421875	-885.1404418945312	1277.807250976562	659.8311767578125	-856.1231079101562	1361.231567382812	472.5562744140625	-768.3328857421875	1362.58154296875	416.1795959472656	-812.9783325195312	1247.125366210938	352.06591796875	-836.1764526367188	1045.591918945312	344.5065307617188	-884.1005859375	1039.815063476562	416.5534057617188	-827.9962158203125	808.1550903320312	327.9202880859375	-838.9291381835938	940.9180908203125	335.343994140625	-809.7327880859375	632.38525390625	387.1856994628906	-838.1317138671875	720.1065063476562	333.2959594726562	-778.9782104492188	713.2019653320312	363.0605163574219	-761.2771606445312	1398.932983398438	728.3377685546875	-765.7322387695312	1347.52490234375	801.2806396484375	-788.4807739257812	1086.93994140625	872.404296875	-830.822998046875	1076.818603515625	786.3530883789062	-718.8937377929688	850.253662109375	825.0886840820312	-753.9505615234375	854.2090454101562	902.7425537109375	-768.87353515625	1018.403991699219	885.3145141601562	-733.0715942382812	663.6246337890625	837.4977416992188	-701.1935424804688	732.6051025390625	846.9135131835938	-744.5326538085938	740.4686279296875	902.4957275390625	-794.8148803710938	1579.956420898438	633.7593383789062	-652.6266479492188	1590.828857421875	475.5860290527344	-633.3076171875	1599.564697265625	565.7665405273438	-825.8084716796875	1555.86669921875	490.9829406738281	-690.4441528320312	928.4103393554688	739.017333984375	-678.150634765625	932.9210815429688	487.89892578125	-635.9783325195312	484.2804870605469	503.3897094726562	-679.6594848632812	617.2467651367188	458.6740112304688	-714.5422973632812	48.51020812988281	569.8796997070312	-668.9957275390625	252.0779571533203	526.91064453125	-504.622802734375	39.98196029663086	626.8665161132812	-574.7808227539062	32.42051696777344	667.7927856445312	-591.9073486328125	45.35882949829102	557.2887573242188	-757.5637817382812	39.79998397827148	631.1924438476562	-846.8638916015625	458.9341125488281	784.0557861328125	-786.6995849609375	713.169677734375	798.2368774414062	-1210.176147460938	188.608154296875	747.2432250976562	-921.09326171875	359.1746826171875	772.9511108398438	-1116.947509765625	40.43460083007812	670.9175415039062	-1141.052001953125	89.41085052490234	639.6564331054688	-1177.708984375	85.96823883056641	752.0431518554688	-781.2027587890625	814.4203491210938	383.25439453125	-1232.678955078125	238.6315155029297	702.3687744140625	-806.4318237304688	936.25146484375	419.4288940429688	-821.0923461914062	931.0364379882812	795.9710083007812	nan	nan	nan	nan	nan	nan	
40	0.39	-893.1497802734375	990.7786865234375	680.4819946289062	-876.2686767578125	984.595703125	506.517822265625	-862.7046508789062	1055.05029296875	598.6836547851562	-610.1915283203125	1220.68310546875	590.7515869140625	-873.4212646484375	1165.614379882812	601.801025390625	-828.1019897460938	1407.291137695312	570.6905517578125	-669.7598266601562	1323.416625976562	578.2459716796875	-876.6782836914062	1278.5244140625	658.2137451171875	-847.5203857421875	1361.985229492188	470.8243408203125	-759.4554443359375	1363.228637695312	414.7868041992188	-802.8682250976562	1247.48046875	350.3105163574219	-824.231689453125	1045.79833984375	342.2165832519531	-873.1655883789062	1039.501831054688	413.65625	-811.2548217773438	808.64404296875	325.7811279296875	-824.990234375	941.077880859375	333.1995849609375	-789.127197265625	633.3143920898438	385.0095825195312	-819.3685913085938	720.411376953125	331.1080017089844	-760.268310546875	714.8623657226562	361.2797241210938	-752.9254760742188	1399.834594726562	726.7462158203125	-757.4251098632812	1348.548828125	799.7294311523438	-780.85791015625	1088.387939453125	871.7818603515625	-823.2145385742188	1078.036376953125	785.8003540039062	-712.3074340820312	851.2405395507812	825.7559814453125	-747.3115844726562	855.817138671875	903.4157104492188	-761.4503173828125	1019.952392578125	885.0716552734375	-727.2005004882812	664.75390625	839.3215942382812	-695.0560913085938	733.7023315429688	848.3147583007812	-738.3441772460938	742.0906372070312	903.89697265625	-786.9945068359375	1580.271850585938	632.6029052734375	-645.5883178710938	1592.461181640625	473.8125	-625.9481201171875	1601.177001953125	563.9024658203125	-818.4261474609375	1556.15625	489.918701171875	-681.2937622070312	928.924072265625	737.1243286132812	-670.0703125	933.7493286132812	485.9349060058594	-632.1780395507812	483.5968933105469	502.3262939453125	-674.3623046875	617.1981201171875	457.4732971191406	-714.5086059570312	48.52624130249023	569.8778686523438	-667.01708984375	251.6344909667969	526.4864501953125	-504.5086059570312	39.8971061706543	626.8966064453125	-574.758056640625	32.45430755615234	667.7793579101562	-591.8463134765625	45.25055694580078	557.2528076171875	-757.5098266601562	39.87873840332031	631.1473999023438	-824.7022094726562	458.1773376464844	785.1278076171875	-773.1395263671875	713.83837890625	797.9144287109375	-1192.953491210938	196.2144622802734	751.77392578125	-899.509765625	359.4553527832031	774.21337890625	-1106.629272460938	40.25586318969727	673.3831787109375	-1129.047485351562	93.34706878662109	642.94580078125	-1164.883178710938	91.78895568847656	755.2657470703125	-765.1201171875	815.9584350585938	381.610107421875	-1214.047729492188	246.6319732666016	706.9334716796875	-798.60302734375	937.1123046875	418.3495483398438	-811.7369995117188	930.7136840820312	794.767333984375	nan	nan	nan	nan	nan	nan	
41	0.4	-884.779296875	990.2061767578125	680.0512084960938	-868.653076171875	985.113525390625	505.9954833984375	-854.5118408203125	1055.45751953125	597.3706665039062	-601.90576171875	1221.289672851562	589.6589965820312	-865.177001953125	1166.353271484375	600.2894287109375	-819.79638671875	1408.058715820312	569.119384765625	-661.48486328125	1323.956665039062	576.9999389648438	-868.3815307617188	1279.2451171875	656.6047973632812	-839.0125732421875	1362.73681640625	469.0900573730469	-750.6515502929688	1363.797241210938	413.4214477539062	-792.7279052734375	1247.738647460938	348.5713195800781	-812.119140625	1045.957885742188	339.8808288574219	-862.220458984375	1039.033935546875	410.5416564941406	-794.328125	809.2114868164062	323.5633850097656	-810.856201171875	941.2345581054688	330.9741516113281	-768.3921508789062	634.3699951171875	382.7157287597656	-800.3812255859375	720.8414306640625	328.7789306640625	-741.4208984375	716.681396484375	359.4692077636719	-744.6924438476562	1400.634399414062	725.2168579101562	-749.3104248046875	1349.436645507812	798.2230224609375	-773.6221313476562	1089.632446289062	870.945068359375	-815.6466674804688	1079.047485351562	784.8648071289062	-705.6142578125	852.1676635742188	826.5020751953125	-741.039794921875	857.2752075195312	903.9591064453125	-754.463134765625	1021.330871582031	884.6910400390625	-720.8794555664062	665.8534545898438	841.2289428710938	-688.6796875	734.7918701171875	849.94482421875	-732.2881469726562	743.6006469726562	905.2328491210938	-779.1549072265625	1580.50927734375	631.4609985351562	-638.5020751953125	1594.025634765625	472.1044311523438	-618.57177734375	1602.714599609375	562.1038818359375	-810.996826171875	1556.381591796875	488.8557434082031	-672.2205810546875	929.3493041992188	735.1554565429688	-662.2323608398438	934.57421875	483.8886108398438	-628.7293701171875	482.8955383300781	501.2193603515625	-669.3551025390625	617.1148681640625	456.232666015625	-714.4882202148438	48.53150177001953	569.8861694335938	-665.2776489257812	251.2022705078125	526.0619506835938	-504.38818359375	39.80961227416992	626.901611328125	-574.737060546875	32.48220062255859	667.761474609375	-591.8052978515625	45.1558723449707	557.20263671875	-757.4735107421875	39.96242523193359	631.1098022460938	-802.308349609375	457.7931518554688	785.8123779296875	-759.4374389648438	714.5722045898438	797.4627685546875	-1174.625122070312	202.9170989990234	756.2474975585938	-877.4192504882812	359.9267578125	775.221923828125	-1093.616943359375	40.9062385559082	676.355224609375	-1114.772827148438	97.22527313232422	646.5513916015625	-1149.768920898438	97.30718994140625	758.8270874023438	-749.0010375976562	817.5404052734375	379.9587707519531	-1194.68115234375	253.5968017578125	711.3785400390625	-791.2215576171875	937.922607421875	417.3113403320312	-802.2862548828125	930.3255004882812	793.5878295898438	nan	nan	nan	nan	nan	nan	
